<?xml version="1.0" encoding="UTF-8"?>
<svg version="1.1" xmlns="http://www.w3.org/2000/svg" width="150" height="150">
<path d="M0 0 C14.5115159 0.85361858 27.33295904 8.89788822 39 17 C38.98839844 16.40832031 38.97679688 15.81664062 38.96484375 15.20703125 C38.91677614 10.99768215 38.93993117 7.1077667 40 3 C44.50415998 3.75559982 46.27984604 5.95009568 49.125 9.359375 C54.60694468 17.07978042 58.54518634 25.62453418 60 35 C63.08089673 32.22719294 64.68775452 29.93673644 66 26 C67.32 26 68.64 26 70 26 C71.50181536 29.00363072 71.10298543 32.08633767 71.0625 35.375 C71.05798828 36.04789063 71.05347656 36.72078125 71.04882812 37.4140625 C71.03599934 39.27606861 71.01817533 41.1380384 71 43 C71 44.32 71 45.64 71 47 C73.64 47.99 76.28 48.98 79 50 C79 51.32 79 52.64 79 54 C75.7 54.99 72.4 55.98 69 57 C69.309375 58.19625 69.61875 59.3925 69.9375 60.625 C71.65274827 68.38037255 72.67618522 76.73575488 71.4375 84.625 C70.70067408 87.84493655 70.70067408 87.84493655 71.953125 89.90625 C73.86161561 93.72323123 73.41574754 97.8359254 73 102 C71.06349778 107.70192321 67.2609583 111.39020346 61.92138672 114.02612305 C59.63218886 114.97207464 57.32882067 115.84397502 55 116.6875 C54.21882813 116.98205078 53.43765625 117.27660156 52.6328125 117.58007812 C51.10938402 118.15072263 49.58216779 118.71137514 48.05102539 119.26098633 C46.35545765 119.87192354 44.67364319 120.52088395 42.99609375 121.1796875 C29.00665727 125.00991131 15.22269338 121.18474633 2.453125 115.390625 C-0.81793073 114.07332201 -3.51867653 113.47451834 -7 113.0625 C-12.32578166 112.23034662 -15.74843084 111.36582558 -20 108 C-23.15972698 103.58581424 -24.65283589 99.4838215 -24 94 C-23.67 93.34 -23.34 92.68 -23 92 C-22.77532169 90.46331135 -22.59203195 88.92031946 -22.4375 87.375 C-22.35371094 86.55773437 -22.26992188 85.74046875 -22.18359375 84.8984375 C-22.09271484 83.95871094 -22.09271484 83.95871094 -22 83 C-23.84754696 81.88841412 -23.84754696 81.88841412 -26 81 C-28.7193293 81.78702351 -28.7193293 81.78702351 -31 83 C-32.75163456 79.22777911 -33.22490027 76.333361 -33.125 72.1875 C-33.10695313 71.21167969 -33.08890625 70.23585938 -33.0703125 69.23046875 C-33.04710937 68.49441406 -33.02390625 67.75835937 -33 67 C-33.99 67.495 -33.99 67.495 -35 68 C-36.99960012 68.039992 -39.00047242 68.04346799 -41 68 C-40.34496718 63.94180817 -39.05440879 60.46028718 -37.4375 56.6875 C-36.98246094 55.61886719 -36.52742188 54.55023438 -36.05859375 53.44921875 C-35.70925781 52.64097656 -35.35992187 51.83273438 -35 51 C-36.5778125 51.495 -36.5778125 51.495 -38.1875 52 C-41.38873357 52.83966782 -43.7411008 53.19750904 -47 53 C-47.33 52.34 -47.66 51.68 -48 51 C-43.09915464 42.47679068 -35.37414447 36.87222951 -27 32 C-27.721875 31.39671875 -28.44375 30.7934375 -29.1875 30.171875 C-30.115625 29.37265625 -31.04375 28.5734375 -32 27.75 C-32.928125 26.96109375 -33.85625 26.1721875 -34.8125 25.359375 C-37 23 -37 23 -37 19 C-34.48322887 17.74161443 -32.58706712 17.79181027 -29.7734375 17.68359375 C-28.2265625 17.62075195 -28.2265625 17.62075195 -26.6484375 17.55664062 C-25.02808594 17.49766602 -25.02808594 17.49766602 -23.375 17.4375 C-22.28703125 17.39431641 -21.1990625 17.35113281 -20.078125 17.30664062 C-17.3855483 17.2003547 -14.69287747 17.09831943 -12 17 C-12.515625 16.21625 -13.03125 15.4325 -13.5625 14.625 C-14.036875 13.75875 -14.51125 12.8925 -15 12 C-14.67 11.34 -14.34 10.68 -14 10 C-13.05125 10.165 -12.1025 10.33 -11.125 10.5 C-6.4236123 11.18541792 -1.73996714 11.08583441 3 11 C1.9790625 9.39125 1.9790625 9.39125 0.9375 7.75 C-1.03471002 4.33842267 -1.03471002 4.33842267 -0.75 1.5625 C-0.5025 1.046875 -0.255 0.53125 0 0 Z " fill="#080707" transform="translate(59,14)"/>
<path d="M0 0 C12.65061226 2.85755006 23.78849352 9.65174385 33.92578125 17.53125 C35.84844232 19.1926298 35.84844232 19.1926298 38 19 C38.495 12.565 38.495 12.565 39 6 C45.69211698 11.70798213 50.45734078 20.36110838 52 29 C52.13995898 32.67392323 52.11959121 36.32589216 52 40 C56.02433106 38.69962091 57.87645968 37.36035658 60.25 33.875 C61.14987197 32.5715772 62.06206375 31.27630566 63 30 C63.33 30 63.66 30 64 30 C63.58411954 36.19518473 62.39748106 41.26689311 60 47 C62.31 47.33 64.62 47.66 67 48 C64.63546807 50.36453193 63.74130071 50.36652704 60.5 50.6875 C59.7059375 50.77386719 58.911875 50.86023438 58.09375 50.94921875 C56 51 56 51 54 50 C51.31944728 49.87635136 48.66604134 49.81154335 45.984375 49.796875 C45.17695862 49.79117493 44.36954224 49.78547485 43.53765869 49.77960205 C41.81938997 49.77013808 40.10110298 49.76361254 38.3828125 49.75976562 C35.80173857 49.75019191 33.22150733 49.71924029 30.640625 49.6875 C16.22542035 49.59432171 0.21944345 50.14586514 -10.8125 60.6875 C-11.534375 61.450625 -12.25625 62.21375 -13 63 C-13.78375 63.268125 -14.5675 63.53625 -15.375 63.8125 C-19.61914341 65.73246964 -22.1162245 69.42644535 -25 73 C-25.495 72.01 -25.495 72.01 -26 71 C-28.31 72.32 -30.62 73.64 -33 75 C-33.02709444 72.91673869 -33.04643873 70.83337559 -33.0625 68.75 C-33.07410156 67.58984375 -33.08570313 66.4296875 -33.09765625 65.234375 C-33.01782092 62.59022872 -32.78643778 60.50173909 -32 58 C-32.763125 58.350625 -33.52625 58.70125 -34.3125 59.0625 C-37 60 -37 60 -40 59 C-38.02 53.72 -36.04 48.44 -34 43 C-37.63 43.66 -41.26 44.32 -45 45 C-39.53185003 39.17906616 -33.12775276 33.67187263 -26 30 C-25.34 30 -24.68 30 -24 30 C-24 29.01 -24 28.02 -24 27 C-24.86625 26.773125 -25.7325 26.54625 -26.625 26.3125 C-30.66573255 24.74110401 -32.87197109 22.97907516 -36 20 C-36 19.34 -36 18.68 -36 18 C-27.31126982 17.10884819 -18.73139464 16.88375362 -10 17 C-10.66 15.02 -11.32 13.04 -12 11 C-6.72 11 -1.44 11 4 11 C2.74908525 7.24725576 1.49934109 3.64125692 0 0 Z " fill="#B7B7B7" transform="translate(63,17)"/>
<path d="M0 0 C0.84175781 0.01546875 1.68351562 0.0309375 2.55078125 0.046875 C4.6875 0.25 4.6875 0.25 6.6875 1.25 C8.13262437 1.46782467 9.58486678 1.63973668 11.0390625 1.78515625 C11.88984375 1.87216797 12.740625 1.95917969 13.6171875 2.04882812 C14.50664063 2.13583984 15.39609375 2.22285156 16.3125 2.3125 C17.65828125 2.44881836 17.65828125 2.44881836 19.03125 2.58789062 C21.24967272 2.81209292 23.4683976 3.03264566 25.6875 3.25 C28.26840889 8.82074101 29.45133743 12.23580432 27.6875 18.25 C23.4908765 26.97897689 12.84854375 29.72327404 4.25708008 32.93066406 C-12.37803369 38.69210149 -25.5994922 34.37451489 -41.08984375 27.078125 C-43.73447247 26.09278003 -46.27153447 25.71386388 -49.0625 25.3125 C-54.15296014 24.52112595 -56.23277932 23.35629424 -59.3125 19.25 C-60.85413175 16.1667365 -60.60997535 13.64121901 -60.3125 10.25 C-58.13285618 8.02588671 -56.74239223 7.312117 -53.6496582 6.86523438 C-52.64765381 6.85814453 -51.64564941 6.85105469 -50.61328125 6.84375 C-48.93443848 6.814021 -48.93443848 6.814021 -47.22167969 6.78369141 C-46.03477539 6.77257324 -44.84787109 6.76145508 -43.625 6.75 C-25.75591555 6.46237215 -25.75591555 6.46237215 -8.69140625 1.6640625 C-5.44462121 0.30529234 -3.46523155 -0.10778325 0 0 Z " fill="#F8BC92" transform="translate(99.3125,97.75)"/>
<path d="M0 0 C1.21945313 -0.01224609 2.43890625 -0.02449219 3.6953125 -0.03710938 C10.44415868 -0.04804163 16.51366759 0.25309847 23 2.1875 C28.17615264 7.69759797 28.22485449 16.85583465 28.16796875 24.0234375 C28 26.1875 28 26.1875 27 29.1875 C23.87463363 29.04892159 20.74981783 28.90040431 17.625 28.75 C16.73554687 28.71068359 15.84609375 28.67136719 14.9296875 28.63085938 C14.07890625 28.58896484 13.228125 28.54707031 12.3515625 28.50390625 C11.56604004 28.46724854 10.78051758 28.43059082 9.97119141 28.39282227 C8 28.1875 8 28.1875 6 27.1875 C-1.09663291 26.42401745 -6.76334468 27.41905394 -13.296875 30.21484375 C-19.08242213 32.29663744 -25.21145176 32.37254002 -31.3046875 32.5390625 C-32.06927277 32.56221527 -32.83385803 32.58536804 -33.62161255 32.60922241 C-35.22326985 32.65651976 -36.82498816 32.70179116 -38.42675781 32.74511719 C-40.88892131 32.81288316 -43.35065077 32.89047181 -45.8125 32.96875 C-47.37237899 33.01361055 -48.93227446 33.05790208 -50.4921875 33.1015625 C-51.23064911 33.12546051 -51.96911072 33.14935852 -52.72994995 33.17398071 C-54.48609572 33.21766982 -56.24343096 33.20803999 -58 33.1875 C-59.63218936 31.55531064 -59.28763111 29.74806873 -59.375 27.5 C-59.36396941 23.65583957 -59.00611597 21.51461967 -56.5 18.5625 C-55.675 17.77875 -54.85 16.995 -54 16.1875 C-53.34 17.1775 -52.68 18.1675 -52 19.1875 C-51.34 19.1875 -50.68 19.1875 -50 19.1875 C-49.67 18.15625 -49.34 17.125 -49 16.0625 C-46.44329952 10.10490549 -41.13598918 7.27491267 -35.5625 4.4375 C-23.9589395 0.36607526 -12.19162404 0.00644378 0 0 Z " fill="#273C59" transform="translate(99,68.8125)"/>
<path d="M0 0 C3.17826136 0.28504586 3.97422359 0.96926285 6.0703125 3.46875 C7.08738281 4.96921875 7.08738281 4.96921875 8.125 6.5 C10.51581446 10.36171759 10.51581446 10.36171759 14 13 C14.33 12.01 14.66 11.02 15 10 C15.99 10.33 16.98 10.66 18 11 C18.33 14.3 18.66 17.6 19 21 C18.34 21 17.68 21 17 21 C16.34 20.01 15.68 19.02 15 18 C14.01 18 13.02 18 12 18 C9.8125 15.5 9.8125 15.5 8 13 C8 13.99 8 14.98 8 16 C6.68 15.67 5.36 15.34 4 15 C3.52029877 13.25014646 3.04126076 11.50011109 2.5625 9.75 C2.29566406 8.77546875 2.02882813 7.8009375 1.75390625 6.796875 C1.14455416 4.53627347 0.55761745 2.27377991 0 0 Z " fill="#101010" transform="translate(84,42)"/>
<path d="M0 0 C0 0.99 0 1.98 0 3 C-2.97 3 -5.94 3 -9 3 C-7.68 3.66 -6.36 4.32 -5 5 C-5 5.99 -5 6.98 -5 8 C-10.69305433 6.76123355 -16.35370013 5.43723997 -22 4 C-22 2.68 -22 1.36 -22 0 C-14.40915019 -2.58411908 -7.5632184 -3.10285883 0 0 Z " fill="#1B1B1B" transform="translate(66,49)"/>
<path d="M0 0 C2.10827055 3.16240582 2.33817465 4.50657469 2.625 8.1875 C2.69976562 9.08855469 2.77453125 9.98960938 2.8515625 10.91796875 C2.90054688 11.60503906 2.94953125 12.29210937 3 13 C1.68 12.67 0.36 12.34 -1 12 C-1.144375 11.2575 -1.28875 10.515 -1.4375 9.75 C-1.90187492 7.47972261 -2.41863569 5.24240521 -3 3 C-4.65 3.33 -6.3 3.66 -8 4 C-8 2.68 -8 1.36 -8 0 C-5.06791253 -1.46604374 -3.11702298 -0.77925574 0 0 Z " fill="#1B1510" transform="translate(50,107)"/>
<path d="M0 0 C0.66 0 1.32 0 2 0 C2.66 0.99 3.32 1.98 4 3 C4.66 3 5.32 3 6 3 C6.66 2.01 7.32 1.02 8 0 C8.99 0.33 9.98 0.66 11 1 C9.125 5.875 9.125 5.875 8 7 C5.125 7.3125 5.125 7.3125 2 7 C0.0625 5.1875 0.0625 5.1875 -1 3 C-0.67 2.01 -0.34 1.02 0 0 Z " fill="#1F1712" transform="translate(94,101)"/>
<path d="M0 0 C0 0.66 0 1.32 0 2 C-5.12325529 4.45489316 -9.33895411 5.50341703 -15 6 C-14.67 5.01 -14.34 4.02 -14 3 C-11.34765625 1.796875 -11.34765625 1.796875 -8.0625 0.75 C-6.44021484 0.21632813 -6.44021484 0.21632813 -4.78515625 -0.328125 C-2 -1 -2 -1 0 0 Z " fill="#0B0A0A" transform="translate(94,97)"/>
<path d="M0 0 C0.598125 0.350625 1.19625 0.70125 1.8125 1.0625 C1.8125 1.3925 1.8125 1.7225 1.8125 2.0625 C-0.8275 2.3925 -3.4675 2.7225 -6.1875 3.0625 C-5.8575 2.0725 -5.5275 1.0825 -5.1875 0.0625 C-2.1875 -0.9375 -2.1875 -0.9375 0 0 Z " fill="#211A15" transform="translate(85.1875,99.9375)"/>
</svg>
